<svg id="OBJECTS" xmlns="http://www.w3.org/2000/svg" viewBox="0 0 322.58 108.06"><defs><style>.cls-1{fill:#ff8f2e;}.cls-2{fill:#1d1d1b;}</style></defs><path class="cls-1" d="M311.89,65.93c0-11.36-.35-25.7-1.91-33.95-.72-3.83-5.73-10.61-11-13.33-8.77-4.54-34.65-3.15-44.57-1.82-15,2-28.71,9.21-42,16.56l-3.15-20.61a104.49,104.49,0,0,0-8.91,17.71C189.79,26.06,173.84,20.14,157.23,19c-49.35-3.45-74.25-2.62-123-.74-6.58.26-13.52-.23-19.33,2.87C4.66,26.57,5.52,39.66,4.82,51.23c-.51,8.56-.26,17.3,2.35,25.46S11,92.45,18.52,96.54c8.28,4.49,14.2,4.32,23.61,4.06,45.94-1.29,91.94-2.06,137.8.79,34.36,2.13,56.79,2.83,91.72,1.42,3.18-.13,30.23-3.59,33-5.16C314.85,91.84,311.85,77.67,311.89,65.93Z"/><path class="cls-2" d="M318.89,62.05c0-7.66-.1-15.33-.64-23-.34-4.83-.37-10.38-2.61-14.78-5.11-10-14.15-13-24.62-13.83a149.72,149.72,0,0,0-31.31,1c-15.33,2.09-29.17,9.34-42.54,16.73l2.2.9L216.22,8.5c-.2-1.35-2.12-1.36-2.74-.36a118.16,118.16,0,0,0-9.06,18.06l1.85-1a165.44,165.44,0,0,0-29.55-9.57c-11.25-2.35-22.84-2.65-34.28-3.24q-29.65-1.56-59.36-.92c-10.7.22-21.39.6-32.09,1-9.38.35-21.08-1.08-29.88,2.8C13.79,18.45,10.8,25.4,9.77,32.92c-1.36,10-1.87,21-.57,31,1,8,3.37,18.49,8.33,25.09,4.68,6.23,13.21,8.79,20.68,9.26,11.89.75,24.1-.43,36-.68,12.8-.27,25.61-.46,38.41-.49,25.26-.06,50.49.59,75.7,2.12,21.66,1.32,43.32,2.21,65,1.91,16.85-.23,33.15-1.24,49.75-4.14,6.07-1.07,11-2.39,13.91-8.44,3.9-8,1.94-17.93,1.89-26.46a1.5,1.5,0,0,0-3,0c0,7.76,1.77,16.6-1.13,24-2.51,6.44-7.48,7.13-13.43,8.14a273,273,0,0,1-39.23,3.7c-42,1-83.85-3.12-125.85-3.73-23-.33-46,0-68.93.51-10,.24-20.5,1.41-30.53.43-5-.49-10.25-2.12-14.21-5.26S17,82,15.62,77.35A88.23,88.23,0,0,1,11.9,46c.41-8.11-.34-18.69,5.88-24.94,7.28-7.31,21.93-5.15,31.39-5.51s19-.7,28.52-.94c20.17-.51,40.33-.39,60.49.57,12.24.59,24.81.75,36.86,3.17a163.45,163.45,0,0,1,30.43,9.75c.81.33,1.58-.38,1.85-1.05a111.89,111.89,0,0,1,8.75-17.35l-2.74-.36,3.15,20.62a1.5,1.5,0,0,0,2.2.89c12.07-6.66,24.5-13.3,38.19-15.85,9.46-1.76,19.45-2,29-1.74,10.8.32,21.12,1.51,26.83,12,2.66,4.92,2.41,11.55,2.71,17,.35,6.59.44,13.19.44,19.78A1.5,1.5,0,0,0,318.89,62.05Z"/><path class="cls-2" d="M195.52,11.52q2,3,4,6c1.07,1.6,3.67.1,2.59-1.51l-4-6c-1.06-1.6-3.66-.1-2.59,1.51Z"/><path class="cls-2" d="M228.54,15.82l4-4a1.5,1.5,0,0,0-2.12-2.12q-2,2-4,4a1.5,1.5,0,0,0,2.12,2.12Z"/><path class="cls-2" d="M291.07,26.27a16.06,16.06,0,0,1,8.73,6.82c1,1.63,3.62.12,2.59-1.52a19.27,19.27,0,0,0-10.53-8.19c-1.84-.59-2.63,2.3-.79,2.89Z"/><path class="cls-2" d="M301.75,27.16a12.84,12.84,0,0,1,4.8,9.6c.07,1.93,3.07,1.94,3,0A15.74,15.74,0,0,0,303.88,25c-1.48-1.23-3.61.89-2.13,2.12Z"/><path class="cls-2" d="M20.88,76.8a9.45,9.45,0,0,0,9.94,10.13c1.9-.17,1.92-3.17,0-3a6.47,6.47,0,0,1-6.94-7.13c.21-1.92-2.79-1.9-3,0Z"/><path class="cls-2" d="M26.11,70.77a9.29,9.29,0,0,0,4.57,8,1.5,1.5,0,0,0,1.52-2.59,6.25,6.25,0,0,1-3.09-5.44,1.5,1.5,0,0,0-3,0Z"/>

<!-- <text class="font-k" font-size="32" x="50%" y="50%" text-anchor="middle" stroke="black" stroke-width="1px" dy=".3em">My text</text> -->

</svg>